<?xml version="1.0"?>
<!--Icons from directory ""-->
<svg xmlns="http://www.w3.org/2000/svg" width="28" height="69" viewBox="0 0 28 69"><svg xmlns:xlink="http://www.w3.org/1999/xlink" viewBox="0 0 20 20" width="20" height="20" id="clock" y="0"><path fill="#e11737" fillRule="evenodd" d="m10.02 15.57c-0.37 0-0.66 0.3-0.66 0.66 0 0.37 0.29 0.66 0.66 0.66 0.36 0 0.66-0.29 0.66-0.66 0-0.36-0.3-0.66-0.66-0.66zm0-11.14c0.36 0 0.66-0.3 0.66-0.67 0-0.36-0.3-0.66-0.66-0.66-0.37 0-0.66 0.3-0.66 0.66 0 0.37 0.29 0.67 0.66 0.67zm-0.02-4.43c-5.52 0-10 4.48-10 10s4.48 10 10 10 10-4.48 10-10-4.48-10-10-10zm0 17.58c-4.19 0-7.58-3.39-7.58-7.58s3.39-7.58 7.58-7.58 7.58 3.39 7.58 7.58-3.39 7.58-7.58 7.58zm-6.22-8.24c-0.36 0-0.66 0.29-0.66 0.66 0 0.36 0.3 0.66 0.66 0.66 0.37 0 0.67-0.3 0.67-0.66 0-0.37-0.3-0.66-0.67-0.66zm12.47 0c-0.36 0-0.66 0.29-0.66 0.66 0 0.36 0.3 0.66 0.66 0.66 0.37 0 0.66-0.3 0.66-0.66 0-0.37-0.29-0.66-0.66-0.66zm-3.16-3.04l-3.16 3.16-1.76-1.77c-0.29-0.29-0.77-0.29-1.07 0-0.29 0.3-0.29 0.77 0 1.07l2.36 2.35s0.3 0.3 0.67 0.12c0.42-0.2 4.03-3.87 4.03-3.87 0.29-0.29 0.29-0.77 0-1.06-0.29-0.3-0.77-0.3-1.07 0z"/></svg><svg width="19" viewBox="0 0 19 19" height="19" id="find" y="20"><path d="m13.65 7.3a6.4 6.4 0 1 0 -12.78 -0.03 6.4 6.4 0 0 0 12.78 0.01zm-6.43 4.3a4.3 4.3 0 1 1 0.03 -8.6 4.3 4.3 0 0 1 -0.03 8.6zm10.51 5.31l-0.8 0.8c-0.5 0.5-1.31 0.5-1.8 0l-3.82-3.82c-0.63-0.64 0.46-0.63 0.95-1.12l0.81-0.8c0.49-0.5 0.3-1.23 0.84-0.69l3.82 3.83c0.49 0.5 0.49 1.3 0 1.8z" fill="#b8b8b8"/></svg><svg width="28" viewBox="0 0 28 30" height="30" id="fly" y="39"><path d="m14.4 12.8l-6.23 6.56-5.71-0.33-2.08 2.5 5.64 1.5s0.25-0.34-1 1.04c-1.16 1.3-0.18 1.6 0.8 0.74 0.97-0.85 0.99-1.04 0.99-1.04l2.42 5.34 1.97-3.13-1.29-4.25 6.58-6.94 6.07 13.4 1.86-1.62-2.32-17.86s4.72-5.33 5.26-6.6c0.54-1.27 0.37-2.14-1.31-1.24-1.69 0.9-6.49 5.78-6.49 5.78l-16.32-0.52-2.84 2.3z" fill="#fff"/></svg></svg>
