<svg xmlns="http://www.w3.org/2000/svg" width="28" height="69" viewBox="0 0 28 69"><svg xmlns:xlink="http://www.w3.org/1999/xlink" viewBox="0 0 20 20" width="20" height="20"><path fill="#e11737" d="M10.02 15.57c-.37 0-.66.3-.66.66 0 .37.29.66.66.66a.66.66 0 1 0 0-1.32zm0-11.14a.666.666 0 0 0 0-1.33c-.37 0-.66.3-.66.66 0 .37.29.67.66.67zM10 0C4.48 0 0 4.48 0 10s4.48 10 10 10 10-4.48 10-10S15.52 0 10 0zm0 17.58c-4.19 0-7.58-3.39-7.58-7.58S5.81 2.42 10 2.42s7.58 3.39 7.58 7.58-3.39 7.58-7.58 7.58zM3.78 9.34a.66.66 0 1 0 0 1.32c.37 0 .67-.3.67-.66 0-.37-.3-.66-.67-.66zm12.47 0a.66.66 0 1 0 .66.66c0-.37-.29-.66-.66-.66zM13.09 6.3L9.93 9.46 8.17 7.69a.767.767 0 0 0-1.07 0c-.29.3-.29.77 0 1.07l2.36 2.35s.3.3.67.12c.42-.2 4.03-3.87 4.03-3.87.29-.29.29-.77 0-1.06-.29-.3-.77-.3-1.07 0z"/></svg><svg width="19" viewBox="0 0 19 19" height="19" y="20"><path d="M13.65 7.3A6.4 6.4 0 1 0 .87 7.27a6.4 6.4 0 0 0 12.78.01zm-6.43 4.3A4.3 4.3 0 1 1 7.25 3a4.3 4.3 0 0 1-.03 8.6zm10.51 5.31l-.8.8c-.5.5-1.31.5-1.8 0l-3.82-3.82c-.63-.64.46-.63.95-1.12l.81-.8c.49-.5.3-1.23.84-.69l3.82 3.83c.49.5.49 1.3 0 1.8z" fill="#b8b8b8"/></svg><svg width="28" viewBox="0 0 28 30" height="30" y="39"><path d="M14.4 12.8l-6.23 6.56-5.71-.33-2.08 2.5 5.64 1.5s.25-.34-1 1.04c-1.16 1.3-.18 1.6.8.74.97-.85.99-1.04.99-1.04l2.42 5.34 1.97-3.13-1.29-4.25 6.58-6.94 6.07 13.4 1.86-1.62L22.1 8.71s4.72-5.33 5.26-6.6c.54-1.27.37-2.14-1.31-1.24-1.69.9-6.49 5.78-6.49 5.78L3.24 6.13.4 8.43z" fill="#fff"/></svg></svg>